Coordinates
version=1
nRows=11
nColumns=40
inDegrees=yes

Units are S.I. units (second, meters, Newtons, ...)
Angles are in degrees.

endheader
time	pelvis_tilt	pelvis_list	pelvis_rotation	pelvis_tx	pelvis_ty	pelvis_tz	hip_flexion_r	hip_adduction_r	hip_rotation_r	knee_angle_r	knee_angle_r_beta	ankle_angle_r	subtalar_angle_r	mtp_angle_r	hip_flexion_l	hip_adduction_l	hip_rotation_l	knee_angle_l	knee_angle_l_beta	ankle_angle_l	subtalar_angle_l	mtp_angle_l	lumbar_extension	lumbar_bending	lumbar_rotation	arm_flex_r	arm_add_r	arm_rot_r	elbow_flex_r	pro_sup_r	wrist_flex_r	wrist_dev_r	arm_flex_l	arm_add_l	arm_rot_l	elbow_flex_l	pro_sup_l	wrist_flex_l	wrist_dev_l
      1.15000000	     -0.80857926	      3.43218304	     -0.72639310	     -0.06452090	      0.94711925	      1.09020254	     -9.80322929	     -5.13362181	    -22.62531578	    -15.35754172	     -0.26803967	     11.02922111	      3.66867534	    -12.29311932	     23.13558234	      3.61245782	     23.81194930	    -11.32407443	     -0.19764238	     -4.57133921	      0.25780103	      8.26748840	     -4.51020915	     -5.03012977	      8.51800170	     12.59066931	    -11.83259442	    -14.79248497	     28.17347910	     89.95437384	      0.00000000	      0.00000000	    -13.72335343	     11.07344474	     13.99121099	      9.31229437	     89.95437384	      0.00000000	      0.00000000
      1.16000000	     -0.48388412	      4.00256283	     -0.87022791	     -0.05525233	      0.94687452	      1.08750242	    -10.55903224	     -6.45049487	    -24.16429173	    -16.00553840	     -0.27934934	     10.99347353	      6.98801042	    -14.19363056	     22.34562503	      2.76939362	     23.43555044	    -11.31508770	     -0.19748554	     -4.50845655	      0.63085948	      7.61726947	     -4.71576366	     -5.60765044	      8.40553263	     12.14025539	    -11.76966684	    -14.20886877	     28.82073828	     89.95437384	      0.00000000	      0.00000000	    -13.89969131	     11.03619107	     14.30592772	      9.26125761	     89.95437384	      0.00000000	      0.00000000
      1.17000000	     -0.50673385	      4.14242018	     -1.06011389	     -0.04627819	      0.94616098	      1.08537496	    -10.96642391	     -6.89467761	    -24.08892347	    -16.28714212	     -0.28426426	     10.69800302	      6.84935244	    -14.16206466	     22.08994296	      2.52784972	     23.13909676	    -11.69772540	     -0.20416382	     -4.20413153	      0.62096475	      7.39779761	     -4.52448158	     -5.74755752	      8.45430249	     11.74418362	    -11.64659960	    -14.02002856	     29.11209755	     89.95437384	      0.00000000	      0.00000000	    -13.99572120	     11.02874826	     14.19980010	      9.08252786	     89.95437384	      0.00000000	      0.00000000
      1.18000000	     -0.69748632	      4.09558973	     -1.21592454	     -0.03733623	      0.94511680	      1.08313890	    -11.09038570	     -7.14058404	    -23.72890883	    -16.75792802	     -0.29248102	     10.44330782	      6.61515389	    -13.89346362	     22.04088204	      2.49438466	     22.68669454	    -12.17980344	     -0.21257767	     -4.21797402	      0.60975647	      7.25219541	     -4.15343217	     -5.66542698	      8.41725247	     11.37421590	    -11.49353176	    -13.93126656	     29.32150033	     89.95437384	      0.00000000	      0.00000000	    -14.32496007	     10.95888847	     14.15031354	      9.34508597	     89.95437384	      0.00000000	      0.00000000
      1.19000000	     -0.47165947	      4.49968464	     -1.48290238	     -0.02758231	      0.94476634	      1.08039961	    -11.81157725	     -8.01257673	    -23.79646953	    -17.03503753	     -0.29731749	     10.09006611	      6.86231293	    -13.92465592	     21.19412175	      1.82780599	     22.28696613	    -12.22665248	     -0.21339534	     -3.52187361	      0.35290462	      7.02114909	     -4.14305288	     -6.04737929	      8.57800702	     10.81674496	    -11.46713160	    -13.61171071	     29.60358827	     89.95437384	      0.00000000	      0.00000000	    -14.14283344	     10.91935342	     14.15052687	      8.74089202	     89.95437384	      0.00000000	      0.00000000
      1.20000000	     -0.66123125	      4.42331267	     -1.60886829	     -0.01809721	      0.94366452	      1.07794782	    -11.94066732	     -8.24536342	    -23.43609591	    -17.55002128	     -0.30630566	      9.80251300	      6.64776288	    -13.65445062	     21.03708845	      1.77720667	     21.84879654	    -12.69987627	     -0.22165466	     -3.59354576	      0.33922861	      6.89350684	     -3.71392308	     -5.93104445	      8.51761866	     10.33459853	    -11.31775478	    -13.52117268	     29.76686568	     89.95437384	      0.00000000	      0.00000000	    -14.47421975	     10.85089472	     14.11746158	      9.04179395	     89.95437384	      0.00000000	      0.00000000
      1.21000000	     -0.03766091	      5.10072053	     -1.97899660	     -0.00735370	      0.94382375	      1.07492640	    -13.05509897	     -9.65474536	    -24.20845190	    -18.05235884	     -0.31507310	      9.07736442	      8.01228599	    -13.99232968	     19.36667515	      0.70637117	     21.64519917	    -12.07612772	     -0.21076819	     -4.05891837	     -0.06999444	      6.90862245	     -4.05996290	     -6.61458913	      8.61577147	      9.62046502	    -11.33917537	    -12.77074295	     30.23637858	     89.95437384	      0.00000000	      0.00000000	    -14.44221090	     10.80306350	     14.29248705	      8.72413982	     89.95437384	      0.00000000	      0.00000000
      1.22000000	      0.08243859	      5.51462229	     -2.25375413	      0.00289756	      0.94320151	      1.07180950	    -13.44464972	    -10.70333112	    -24.31111534	    -18.81968923	     -0.32846554	      8.66705671	      8.68287769	    -14.23193177	     18.63216635	      0.08951411	     22.10450350	    -11.81720309	     -0.20624910	     -5.78069331	     -0.22807817	      7.15691056	     -3.87284626	     -6.99350163	      8.68536725	      9.05045075	    -11.27778258	    -12.54359232	     30.32437737	     89.95437384	      0.00000000	      0.00000000	    -14.51577777	     10.70819112	     14.49785952	      8.67153214	     89.95437384	      0.00000000	      0.00000000
      1.23000000	     -0.05787940	      5.44577502	     -2.25917568	      0.01263663	      0.94226758	      1.06873677	    -13.60992535	    -10.94686721	    -23.87008585	    -19.37923058	     -0.33823138	      8.36944333	      8.40220949	    -13.95675492	     18.61522811	      0.07134844	     21.81683817	    -12.20461235	     -0.21301067	     -5.94975042	     -0.19996918	      7.05086892	     -3.48582728	     -6.84696224	      8.51514795	      8.49971359	    -11.18779579	    -12.49828882	     30.38320650	     89.95437384	      0.00000000	      0.00000000	    -14.73025329	     10.59481006	     14.45373576	      8.99112687	     89.95437384	      0.00000000	      0.00000000
      1.24000000	      0.66213126	      6.79940186	     -2.85534924	      0.02340163	      0.94298554	      1.06529570	    -14.40446557	    -13.42332308	    -24.70890670	    -20.64114411	     -0.36025593	      7.57565093	      9.86408338	    -14.49356384	     16.93990474	     -1.60967239	     23.22155143	    -10.95249012	     -0.19115701	     -8.22951481	      0.43894880	      6.08939842	     -3.87105873	     -8.28654435	      8.78867034	      8.08714607	    -10.95949644	    -12.61821812	     30.14661049	     89.95437384	      0.00000000	      0.00000000	    -14.46319897	     10.57905495	     14.70038644	      8.58076823	     89.95437384	      0.00000000	      0.00000000
      1.25000000	      0.53170856	      6.76619968	     -2.83030291	      0.03342344	      0.94249368	      1.06189619	    -14.48953742	    -13.70630678	    -24.08823865	    -21.32696637	     -0.37222578	      7.16910286	      9.45940262	    -14.12819937	     16.85234892	     -1.70328086	     22.75186822	    -11.70553536	     -0.20430013	     -8.21200262	      0.47390580	      5.92777283	     -3.45390975	     -8.15000894	      8.59020636	      7.40933616	    -10.89163158	    -12.57386505	     30.17625069	     89.95437384	      0.00000000	      0.00000000	    -14.65599033	     10.42777427	     14.62831537	      9.01258304	     89.95437384	      0.00000000	      0.00000000
